<?xml version="1.0" encoding="UTF-8" standalone="no"?><!DOCTYPE svg PUBLIC "-//W3C//DTD SVG 1.1//EN" "http://www.w3.org/Graphics/SVG/1.1/DTD/svg11.dtd"><svg width="100%" height="100%" viewBox="0 0 8 8" version="1.1" xmlns="http://www.w3.org/2000/svg" xmlns:xlink="http://www.w3.org/1999/xlink" xml:space="preserve" xmlns:serif="http://www.serif.com/" style="fill-rule:evenodd;clip-rule:evenodd;stroke-linejoin:round;stroke-miterlimit:2;"><path d="M2.886,4.856l-1.888,-0c-0.263,-0 -0.477,-0.228 -0.477,-0.508l0,-1.016c0,-0.28 0.214,-0.508 0.477,-0.508l1.888,0l0,-2.01c0,-0.28 0.214,-0.508 0.477,-0.508l0.954,0c0.263,0 0.477,0.228 0.477,0.508l-0,2.01l1.888,0c0.263,0 0.477,0.228 0.477,0.508l-0,1.016c-0,0.28 -0.214,0.508 -0.477,0.508l-1.888,-0l-0,2.01c-0,0.28 -0.214,0.508 -0.477,0.508l-0.954,-0c-0.263,-0 -0.477,-0.228 -0.477,-0.508l0,-2.01Z" style="fill:#1932ce;"/></svg>