<?xml version="1.0" encoding="UTF-8" standalone="no"?><!DOCTYPE svg PUBLIC "-//W3C//DTD SVG 1.1//EN" "http://www.w3.org/Graphics/SVG/1.1/DTD/svg11.dtd"><svg width="100%" height="100%" viewBox="0 0 426 426" version="1.1" xmlns="http://www.w3.org/2000/svg" xmlns:xlink="http://www.w3.org/1999/xlink" xml:space="preserve" xmlns:serif="http://www.serif.com/" style="fill-rule:evenodd;clip-rule:evenodd;stroke-linejoin:round;stroke-miterlimit:2;"><g><path d="M367.463,370.468c0,7.303 -5.92,13.223 -13.223,13.223l-226.69,0c-7.302,0 -13.228,-5.92 -13.228,-13.223l-0,-283.343c-0,-7.303 5.926,-13.223 13.228,-13.223l226.69,0c7.303,0 13.223,5.92 13.223,13.223l0,283.343Z" style="fill:#e5b24f;fill-rule:nonzero;"/><path d="M369.962,370.468l-4.999,-0c-0.002,2.969 -1.196,5.633 -3.141,7.582c-1.948,1.944 -4.613,3.139 -7.582,3.141l-226.69,0c-2.969,-0.002 -5.635,-1.197 -7.585,-3.141c-1.946,-1.949 -3.142,-4.614 -3.143,-7.582l-0,-283.343c0.001,-2.969 1.197,-5.634 3.143,-7.582c1.95,-1.945 4.616,-3.14 7.585,-3.141l226.69,0c2.969,0.001 5.634,1.196 7.582,3.14c1.945,1.949 3.139,4.613 3.141,7.583l0,283.343l4.999,-0l0,-283.343c-0.001,-8.685 -7.038,-15.722 -15.722,-15.723l-226.69,0c-4.334,-0.001 -8.281,1.763 -11.12,4.605c-2.842,2.836 -4.609,6.783 -4.608,11.118l-0,283.343c-0.001,4.334 1.766,8.281 4.608,11.118c2.839,2.841 6.786,4.606 11.12,4.604l226.69,-0c8.684,-0.001 15.721,-7.038 15.722,-15.722Z" style="fill:#035184;fill-rule:nonzero;"/><path d="M313.014,365.132l-180.475,-0l0,-272.871l216.713,-0l0,237.379c-12.581,11.414 -25.204,22.911 -36.238,35.492Z" style="fill:#fff;fill-rule:nonzero;"/><path d="M313.014,365.132l0,-2.5l-177.976,-0l-0,-267.872l211.713,0l0.001,234.88l2.5,-0l-1.68,-1.852c-12.583,11.417 -25.278,22.972 -36.438,35.695l1.88,1.649l0,-2.5l0,2.5l1.879,1.648c10.908,-12.439 23.459,-23.878 36.039,-35.289c0.522,-0.474 0.819,-1.146 0.819,-1.851l0,-237.379c0,-0.658 -0.266,-1.302 -0.731,-1.768c-0.466,-0.465 -1.11,-0.732 -1.768,-0.732l-216.713,-0c-0.659,-0 -1.303,0.267 -1.768,0.732c-0.465,0.466 -0.732,1.11 -0.732,1.768l0,272.871c0,0.658 0.267,1.302 0.732,1.768c0.466,0.465 1.109,0.732 1.768,0.732l180.475,-0c0.723,-0 1.402,-0.308 1.879,-0.852l-1.879,-1.648Z" style="fill:#035184;fill-rule:nonzero;"/><path d="M313.407,365.132l0,-35.492l35.845,-0c-11.035,12.581 -23.264,24.073 -35.845,35.492Z" style="fill:#4a7ea7;fill-rule:nonzero;"/><path d="M313.407,365.132l2.5,-0l0,-32.993l33.345,-0l0,-2.499l-1.88,-1.649c-10.928,12.46 -23.085,23.89 -35.645,35.289l1.68,1.852l2.5,-0l-2.5,-0l1.68,1.851c12.602,-11.438 24.902,-22.993 36.044,-35.695c0.646,-0.737 0.803,-1.787 0.398,-2.68c-0.404,-0.893 -1.297,-1.468 -2.277,-1.468l-35.845,-0c-0.658,-0 -1.303,0.266 -1.768,0.732c-0.465,0.465 -0.732,1.109 -0.732,1.768l0,35.492c0,0.988 0.585,1.886 1.488,2.286c0.903,0.4 1.961,0.229 2.692,-0.435l-1.68,-1.851Z" style="fill:#035184;fill-rule:nonzero;"/><rect x="152.049" y="143.709" width="179.28" height="7.566" style="fill:#4a7ea7;fill-rule:nonzero;"/><path d="M331.329,151.275l0,-2.5l-176.781,-0l0,-2.566l174.281,0l0,5.066l2.5,-0l0,-2.5l0,2.5l2.5,-0l0,-7.566c0,-0.659 -0.266,-1.302 -0.732,-1.768c-0.466,-0.465 -1.11,-0.732 -1.768,-0.732l-179.28,0c-0.659,0 -1.303,0.267 -1.768,0.732c-0.466,0.465 -0.732,1.109 -0.732,1.768l-0,7.566c-0,0.658 0.266,1.302 0.732,1.767c0.466,0.466 1.109,0.732 1.768,0.732l179.28,-0c0.668,-0 1.296,-0.26 1.768,-0.732c0.472,-0.472 0.732,-1.1 0.732,-1.767l-2.5,-0Z" style="fill:#035184;fill-rule:nonzero;"/><rect x="152.049" y="193.49" width="179.28" height="7.561" style="fill:#4a7ea7;fill-rule:nonzero;"/><path d="M331.329,201.051l0,-2.5l-176.781,-0l0,-2.562l174.281,-0l0,5.062l2.5,-0l0,-2.5l0,2.5l2.5,-0l0,-7.561c0,-0.658 -0.266,-1.302 -0.732,-1.768c-0.466,-0.465 -1.11,-0.732 -1.768,-0.732l-179.28,0c-0.659,0 -1.303,0.267 -1.768,0.732c-0.466,0.466 -0.732,1.11 -0.732,1.768l-0,7.561c-0,0.658 0.266,1.302 0.732,1.768c0.466,0.465 1.109,0.731 1.768,0.731l179.28,0c0.668,0 1.296,-0.259 1.768,-0.731c0.472,-0.473 0.732,-1.101 0.732,-1.768l-2.5,-0Z" style="fill:#035184;fill-rule:nonzero;"/><rect x="152.049" y="243.267" width="179.28" height="7.565" style="fill:#4a7ea7;fill-rule:nonzero;"/><path d="M331.329,250.832l0,-2.5l-176.781,0l0,-2.566l174.281,0l0,5.066l2.5,0l0,-2.5l0,2.5l2.5,0l0,-7.565c0,-0.659 -0.266,-1.302 -0.732,-1.768c-0.466,-0.466 -1.11,-0.732 -1.768,-0.732l-179.28,-0c-0.659,-0 -1.303,0.266 -1.768,0.732c-0.466,0.465 -0.732,1.109 -0.732,1.768l-0,7.565c-0,0.658 0.266,1.302 0.732,1.768c0.466,0.466 1.109,0.732 1.768,0.732l179.28,0c0.668,0 1.296,-0.26 1.768,-0.732c0.472,-0.472 0.732,-1.1 0.732,-1.768l-2.5,0Z" style="fill:#035184;fill-rule:nonzero;"/><rect x="152.049" y="293.044" width="179.28" height="7.565" style="fill:#4a7ea7;fill-rule:nonzero;"/><path d="M331.329,300.609l0,-2.5l-176.781,0l0,-2.565l174.281,0l0,5.065l2.5,0l0,-2.5l0,2.5l2.5,0l0,-7.565c0,-0.659 -0.266,-1.302 -0.732,-1.768c-0.466,-0.465 -1.11,-0.732 -1.768,-0.732l-179.28,0c-0.659,0 -1.303,0.267 -1.768,0.732c-0.466,0.465 -0.732,1.109 -0.732,1.768l-0,7.565c-0,0.658 0.266,1.302 0.732,1.767c0.466,0.466 1.109,0.732 1.768,0.732l179.28,0c0.668,0 1.296,-0.26 1.768,-0.732c0.472,-0.472 0.732,-1.1 0.732,-1.767l-2.5,0Z" style="fill:#035184;fill-rule:nonzero;"/><path d="M250.529,64.597l-19.273,-0c-0,-5.32 4.316,-9.636 9.637,-9.636c5.326,-0 9.636,4.316 9.636,9.636Zm-64.155,8.696l-0,28.962l109.042,0l-0,-28.962c-0,-4.805 -3.891,-8.696 -8.695,-8.696l-24.336,-0c0,-11.866 -9.621,-21.487 -21.492,-21.487c-11.866,-0 -21.487,9.621 -21.487,21.487l-24.336,-0c-4.805,-0 -8.696,3.891 -8.696,8.696Z" style="fill:#4a7ea7;fill-rule:nonzero;"/><path d="M250.529,64.597l0,-2.5l-19.273,-0l-0,2.5l2.499,-0c0.002,-1.977 0.796,-3.746 2.092,-5.046c1.299,-1.295 3.068,-2.089 5.046,-2.091c1.98,0.002 3.748,0.796 5.047,2.091c1.295,1.299 2.088,3.068 2.089,5.046l2.5,-0l0,-2.5l0,2.5l2.5,-0c0.001,-3.342 -1.361,-6.392 -3.553,-8.581c-2.188,-2.193 -5.238,-3.557 -8.583,-3.555c-3.344,-0.002 -6.393,1.362 -8.582,3.555c-2.192,2.188 -3.557,5.238 -3.555,8.581c-0,0.659 0.266,1.303 0.732,1.768c0.466,0.466 1.109,0.732 1.768,0.732l19.273,-0c0.668,-0 1.296,-0.26 1.768,-0.732c0.472,-0.472 0.732,-1.1 0.732,-1.768l-2.5,-0Zm-61.655,8.696l-5,-0l-0,28.962c-0,0.658 0.267,1.302 0.732,1.768c0.466,0.465 1.109,0.732 1.768,0.732l109.042,0c0.667,0 1.295,-0.26 1.768,-0.732c0.472,-0.473 0.732,-1.1 0.732,-1.768l-0,-28.962c-0.001,-6.186 -5.01,-11.195 -11.195,-11.196l-24.336,-0l0,2.5l2.499,-0c-0.001,-13.248 -10.739,-23.986 -23.991,-23.987c-13.248,0.001 -23.985,10.739 -23.987,23.987l2.5,-0l0,-2.5l-24.336,-0c-6.186,0.001 -11.195,5.01 -11.196,11.196l5,-0c0.001,-1.722 0.689,-3.254 1.814,-4.382c1.128,-1.125 2.661,-1.813 4.382,-1.814l24.336,-0c0.668,-0 1.296,-0.26 1.768,-0.732c0.472,-0.472 0.732,-1.1 0.732,-1.768c0.001,-5.251 2.121,-9.982 5.561,-13.425c3.445,-3.441 8.175,-5.561 13.426,-5.562c5.253,0.001 9.985,2.122 13.429,5.562c3.441,3.443 5.561,8.174 5.563,13.425c0,0.659 0.266,1.303 0.732,1.768c0.466,0.466 1.109,0.732 1.768,0.732l24.336,-0c1.72,0.001 3.253,0.689 4.381,1.814c1.125,1.128 1.813,2.66 1.814,4.382l-0,26.462l-104.042,0l-0,-26.462Z" style="fill:#035184;fill-rule:nonzero;"/><path d="M61.101,259.018c-4.485,-4.487 -4.485,-11.758 0,-16.243l8.193,-8.193c4.485,-4.486 11.757,-4.486 16.243,0l24.364,24.364c4.486,4.486 4.486,11.757 0,16.244l-8.192,8.191c-4.486,4.486 -11.758,4.486 -16.244,-0l-24.364,-24.363Z" style="fill:#4a7ea7;fill-rule:nonzero;"/><path d="M61.101,259.018l1.768,-1.767c-1.76,-1.763 -2.63,-4.049 -2.633,-6.355c0.003,-2.309 0.873,-4.593 2.632,-6.353l8.194,-8.193c1.761,-1.76 4.045,-2.63 6.353,-2.633c2.307,0.003 4.591,0.873 6.354,2.633l24.364,24.363c1.76,1.762 2.629,4.046 2.632,6.355c-0.003,2.307 -0.873,4.592 -2.632,6.354l-8.193,8.191c-1.761,1.76 -4.046,2.63 -6.353,2.633c-2.309,-0.003 -4.594,-0.874 -6.354,-2.633l-24.364,-24.362l-1.768,1.767l-1.768,1.767l24.364,24.364c2.723,2.726 6.318,4.099 9.89,4.096c3.57,0.003 7.164,-1.37 9.89,-4.096l8.192,-8.192c2.726,-2.725 4.099,-6.319 4.096,-9.889c0.003,-3.571 -1.37,-7.165 -4.096,-9.89l-24.365,-24.364c-2.725,-2.726 -6.319,-4.099 -9.889,-4.097c-3.571,-0.002 -7.165,1.37 -9.889,4.098l-8.193,8.192c-2.727,2.723 -4.099,6.318 -4.096,9.889c-0.003,3.57 1.369,7.165 4.096,9.889l1.768,-1.767Z" style="fill:#035184;fill-rule:nonzero;"/><path d="M71.643,269.559l24.436,-24.436l70.399,70.399l-24.437,24.435l-70.398,-70.398Z" style="fill:#4a7ea7;fill-rule:nonzero;"/><path d="M71.643,269.559l1.768,1.767l22.667,-22.668l66.863,66.863l-20.9,20.9l-68.63,-68.63l-1.768,1.768l1.768,1.767l-1.768,-1.767l-1.768,1.767l70.398,70.399c0.472,0.472 1.1,0.732 1.768,0.732c0.667,0 1.295,-0.26 1.768,-0.732l24.436,-24.436c0.472,-0.472 0.732,-1.1 0.732,-1.767c0,-0.668 -0.26,-1.296 -0.732,-1.768l-70.399,-70.399c-0.976,-0.976 -2.559,-0.976 -3.535,-0l-24.436,24.436c-0.977,0.976 -0.977,2.559 0,3.535l1.768,-1.767Z" style="fill:#035184;fill-rule:nonzero;"/><path d="M78.834,262.369l10.054,-10.054l70.399,70.397l-10.056,10.056l-70.397,-70.399Z" style="fill:#fff;fill-rule:nonzero;"/><path d="M78.834,262.369l1.767,1.768l8.287,-8.287l66.863,66.862l-6.52,6.52l-68.63,-68.631l-1.767,1.768l1.767,1.768l-1.767,-1.768l-1.769,1.768l70.398,70.398c0.473,0.473 1.1,0.732 1.768,0.732c0.668,-0 1.295,-0.259 1.768,-0.732l10.056,-10.055c0.472,-0.473 0.732,-1.1 0.732,-1.768c0,-0.668 -0.26,-1.296 -0.732,-1.768l-70.399,-70.397c-0.977,-0.977 -2.56,-0.977 -3.536,-0l-10.055,10.054c-0.976,0.977 -0.976,2.559 0,3.536l1.769,-1.768Z" style="fill:#035184;fill-rule:nonzero;"/><path d="M166.478,315.522l10.947,35.623l-35.622,-10.949l24.675,-24.674Z" style="fill:#fff;fill-rule:nonzero;"/><path d="M166.478,315.522l-2.391,0.734l9.561,31.112l-27.14,-8.342l21.737,-21.737l-1.767,-1.767l-2.391,0.734l2.391,-0.734l-1.769,-1.768l-24.674,24.673c-0.621,0.621 -0.87,1.52 -0.659,2.371c0.212,0.851 0.853,1.529 1.692,1.787l35.622,10.949c0.884,0.272 1.848,0.033 2.502,-0.622c0.655,-0.654 0.894,-1.618 0.622,-2.502l-10.947,-35.623c-0.258,-0.839 -0.936,-1.48 -1.787,-1.692c-0.851,-0.212 -1.75,0.038 -2.371,0.659l1.769,1.768Z" style="fill:#035184;fill-rule:nonzero;"/><path d="M173.607,338.72l3.818,12.425l-12.424,-3.819l8.606,-8.606Z" style="fill:#4a7ea7;fill-rule:nonzero;"/><path d="M173.607,338.72l-2.39,0.734l2.431,7.914l-3.942,-1.212l5.669,-5.668l-1.768,-1.768l-2.39,0.734l2.39,-0.734l-1.768,-1.768l-8.606,8.606c-0.621,0.62 -0.87,1.52 -0.658,2.371c0.211,0.851 0.853,1.529 1.691,1.787l12.424,3.818c0.884,0.272 1.848,0.033 2.502,-0.622c0.654,-0.654 0.894,-1.617 0.622,-2.502l-3.817,-12.424c-0.258,-0.839 -0.935,-1.481 -1.787,-1.692c-0.851,-0.212 -1.751,0.037 -2.371,0.658l1.768,1.768Z" style="fill:#035184;fill-rule:nonzero;"/><path d="M68.63,266.547l24.436,-24.435l5.669,5.667l-24.436,24.436l-5.669,-5.668Z" style="fill:#fff;fill-rule:nonzero;"/><path d="M68.63,266.547l1.768,1.768l22.667,-22.668l2.133,2.132l-20.899,20.9l-3.901,-3.9l-1.768,1.768l1.768,1.768l-1.768,-1.768l-1.768,1.768l5.669,5.668c0.472,0.472 1.1,0.732 1.768,0.732c0.668,-0 1.295,-0.26 1.768,-0.732l24.436,-24.436c0.472,-0.473 0.732,-1.1 0.732,-1.768c0,-0.667 -0.26,-1.295 -0.732,-1.768l-5.669,-5.668c-0.977,-0.976 -2.56,-0.976 -3.536,0l-24.436,24.436c-0.976,0.976 -0.976,2.559 -0,3.536l1.768,-1.768Z" style="fill:#035184;fill-rule:nonzero;"/></g></svg>