<?xml version="1.0" encoding="UTF-8" standalone="no"?><!DOCTYPE svg PUBLIC "-//W3C//DTD SVG 1.1//EN" "http://www.w3.org/Graphics/SVG/1.1/DTD/svg11.dtd"><svg width="100%" height="100%" viewBox="0 0 8 8" version="1.1" xmlns="http://www.w3.org/2000/svg" xmlns:xlink="http://www.w3.org/1999/xlink" xml:space="preserve" xmlns:serif="http://www.serif.com/" style="fill-rule:evenodd;clip-rule:evenodd;stroke-linejoin:round;stroke-miterlimit:2;"><clipPath id="_clip1"><rect x="0" y="0" width="7.687" height="7.675"/></clipPath><g clip-path="url(#_clip1)"><g><path d="M3.983,2.202c0.245,0 0.439,0.218 0.422,0.474l-0.139,2.115c-0.015,0.232 -0.2,0.413 -0.423,0.413c-0.222,-0 -0.407,-0.181 -0.422,-0.413l-0.139,-2.115c-0.017,-0.256 0.177,-0.474 0.422,-0.474l0.279,0Z" style="fill:#dff9fb;fill-rule:nonzero;"/><path d="M3.843,5.721c0.273,0 0.495,0.232 0.495,0.518c-0,0.286 -0.222,0.517 -0.495,0.517c-0.272,0 -0.494,-0.231 -0.494,-0.517c0,-0.286 0.222,-0.518 0.494,-0.518Z" style="fill:#dff9fb;fill-rule:nonzero;"/><path d="M4.338,6.239c-0,-0.286 -0.222,-0.518 -0.495,-0.518c-0.272,0 -0.494,0.232 -0.494,0.518c0,0.286 0.222,0.517 0.494,0.517c0.273,0 0.495,-0.231 0.495,-0.517Zm0.067,-3.563c0.017,-0.256 -0.177,-0.474 -0.422,-0.474l-0.279,0c-0.245,0 -0.439,0.218 -0.422,0.474l0.139,2.115c0.015,0.232 0.2,0.413 0.422,0.413c0.223,-0 0.408,-0.181 0.423,-0.413l0.139,-2.115Zm3.209,4.048c0.218,0.431 -0.08,0.951 -0.547,0.951l-6.447,0c-0.467,0 -0.765,-0.52 -0.547,-0.951l3.224,-6.379c0.232,-0.46 0.861,-0.46 1.093,0l3.224,6.379Z" style="fill:#f73e54;fill-rule:nonzero;"/></g></g></svg>