<?xml version="1.0" encoding="UTF-8" standalone="no"?><!DOCTYPE svg PUBLIC "-//W3C//DTD SVG 1.1//EN" "http://www.w3.org/Graphics/SVG/1.1/DTD/svg11.dtd"><svg width="100%" height="100%" viewBox="0 0 764 802" version="1.1" xmlns="http://www.w3.org/2000/svg" xmlns:xlink="http://www.w3.org/1999/xlink" xml:space="preserve" xmlns:serif="http://www.serif.com/" style="fill-rule:evenodd;clip-rule:evenodd;stroke-linejoin:round;stroke-miterlimit:2;"><path d="M243.648,0.074c-10.162,2.992 -16.995,9.659 -20.5,20c-1.202,3.274 -2.202,6.607 -3,10c-0.464,-0.594 -0.631,-1.261 -0.5,-2c1.92,-10.007 6.587,-18.507 14,-25.5c3.036,-2.006 6.369,-2.84 10,-2.5Z" style="fill:#080a0f;"/><path d="M483.648,159.074c9.996,47.983 22.496,95.316 37.5,142c6.128,13.917 11.962,27.917 17.5,42c-11.197,-21.737 -20.363,-44.404 -27.5,-68c-11.437,-38.4 -20.603,-77.067 -27.5,-116Z" style="fill:#0e1013;"/><path d="M243.648,0.074c3.14,0.629 5.64,2.296 7.5,5c4.476,9.62 9.476,18.953 15,28c4.856,6.195 10.856,10.862 18,14c20.829,-11.999 43.329,-17.666 67.5,-17c19.844,0.627 39.178,4.127 58,10.5c4.742,2.12 9.242,4.62 13.5,7.5c17.211,-9.214 28.544,-23.214 34,-42c5.184,-6.392 11.35,-7.558 18.5,-3.5c9.582,8.667 14.749,19.5 15.5,32.5c1.302,13.825 -1.365,26.825 -8,39c-5.609,7.445 -11.775,14.445 -18.5,21c1.124,1.414 2.124,2.914 3,4.5c0.667,0.667 1.333,0.667 2,-0c33.839,-35.093 71.839,-40.093 114,-15c8.288,6.656 10.121,14.823 5.5,24.5c-18.012,38.261 -48.179,55.761 -90.5,52.5c-4.723,-0.977 -9.389,-2.144 -14,-3.5c-0.607,0.124 -0.94,0.457 -1,1c6.897,38.933 16.063,77.6 27.5,116c7.137,23.596 16.303,46.263 27.5,68c6.761,13.932 12.761,28.265 18,43c-0.543,0.06 -0.876,0.393 -1,1c11.815,32.298 21.148,63.964 28,95c6.034,27.222 8.2,54.888 6.5,83c-1.314,6.48 -5.147,10.48 -11.5,12c-2.107,-0.968 -4.441,-1.302 -7,-1c0.335,-15.384 0.002,-29.384 -1,-42c-0.547,-5.634 -1.547,-11.3 -3,-17c-8.559,-2.408 -16.892,-5.408 -25,-9c-11.838,-6.666 -21.672,-15.666 -29.5,-27c-6.2,-10.53 -8.533,-21.863 -7,-34c3.713,-12.427 7.713,-24.76 12,-37c2.209,-9.129 0.042,-16.963 -6.5,-23.5c-8.695,-5.023 -16.528,-11.19 -23.5,-18.5c-2.619,-2.906 -4.453,-6.239 -5.5,-10c-2.126,-6.507 -3.626,-13.174 -4.5,-20c0.204,-6.837 0.037,-13.504 -0.5,-20c3.24,-15.958 7.573,-31.624 13,-47c-5.359,-21.299 -10.526,-42.633 -15.5,-64c-0.726,15.576 -4.56,30.243 -11.5,44c-1.763,3.056 -4.43,4.889 -8,5.5c-15.315,1.34 -28.315,-3.493 -39,-14.5c-15.613,-0.554 -30.946,-3.387 -46,-8.5c-0.836,-1.243 -0.503,-2.41 1,-3.5c1.68,2.661 3.013,2.494 4,-0.5c-1.149,-1.73 -1.149,-3.396 0,-5c-2.119,-0.098 -3.786,-0.931 -5,-2.5c0.667,-0.333 1.333,-0.667 2,-1c12.099,5.429 24.765,7.596 38,6.5c-4.188,-0.176 -8.188,-0.676 -12,-1.5c6.423,0.291 12.756,-0.042 19,-1c13.174,-1.169 22.341,-7.836 27.5,-20c4.838,-15.703 6.338,-31.703 4.5,-48c-3.398,-0.32 -6.732,0.013 -10,1c1.521,4.345 2.187,8.845 2,13.5c0.855,14.621 -1.979,28.454 -8.5,41.5c-4.765,5.298 -10.599,8.298 -17.5,9c-9.402,1.305 -18.069,-0.529 -26,-5.5c-10.074,-8.333 -17.574,-18.5 -22.5,-30.5c-2.216,-6.512 -3.216,-13.179 -3,-20c2.292,-4.288 5.792,-7.122 10.5,-8.5c10.68,-3.71 21.68,-5.544 33,-5.5c11.983,0.206 23.817,1.54 35.5,4c1.833,-0.167 3.667,-0.333 5.5,-0.5c-1.323,-0.816 -1.989,-1.983 -2,-3.5c-1.694,-3.031 -4.36,-4.864 -8,-5.5c-21.378,-3.498 -42.712,-3.331 -64,0.5c-0.079,-1.43 0.254,-2.764 1,-4c-0.525,-0.692 -1.192,-1.192 -2,-1.5c0.14,-1.597 0.14,-3.097 0,-4.5c-1.846,-1.265 -3.68,-2.598 -5.5,-4c-1.487,0.753 -1.654,1.586 -0.5,2.5c-3.263,0.869 -3.596,2.203 -1,4c-1.541,1.579 -2.708,3.413 -3.5,5.5c-1.008,-0.482 -2.175,-0.648 -3.5,-0.5c0.78,-1.073 0.613,-2.24 -0.5,-3.5c-0.667,0.667 -1.333,1.333 -2,2c-2.181,-5.478 -2.848,-11.144 -2,-17c0.333,1.333 0.667,2.667 1,4c0.163,-2.176 0.996,-4.009 2.5,-5.5c-1.634,-0.494 -3.301,-0.66 -5,-0.5c-0.84,-18.803 3.16,-36.47 12,-53c3.83,-7.508 8.497,-14.508 14,-21c-31.001,-6.417 -60.668,-2.583 -89,11.5c-16.193,10.867 -28.026,25.367 -35.5,43.5c-4.853,10.215 -7.853,20.882 -9,32c11.757,-1.154 23.591,-1.321 35.5,-0.5c15.495,-0.42 27.495,5.746 36,18.5c8.798,-2.567 17.631,-2.567 26.5,-0c1.174,-1.044 2.341,-2.044 3.5,-3c1.385,-1.074 2.551,-2.407 3.5,-4c0.617,0.949 0.451,1.782 -0.5,2.5c0.547,0.925 1.213,1.758 2,2.5c0.24,-1.337 0.74,-3.003 1.5,-5c0.483,0.948 0.649,1.948 0.5,3c1.322,0.17 2.489,-0.163 3.5,-1c0.704,1.778 1.204,3.612 1.5,5.5c-6.597,18.126 -5.597,35.959 3,53.5c-0.865,0.064 -1.865,0.397 -3,1c-0.216,-3.249 -1.716,-3.582 -4.5,-1c-0.429,-2.169 0.071,-4.169 1.5,-6c-0.736,-2.293 -0.902,-4.626 -0.5,-7c-0.691,3.091 -2.524,4.257 -5.5,3.5c-0.63,-1.892 -1.63,-3.559 -3,-5c3.242,-0.283 3.576,-1.117 1,-2.5c-1.342,1.402 -2.176,1.069 -2.5,-1c-0.333,1.333 -0.667,2.667 -1,4c-0.302,-2.935 -1.135,-4.935 -2.5,-6c-0.759,-5.901 -1.759,-11.901 -3,-18c-6.234,-2.203 -12.567,-2.536 -19,-1c0.107,19.582 -5.06,37.582 -15.5,54c-5.444,6.637 -12.278,11.137 -20.5,13.5c28.273,-3.186 56.273,-1.52 84,5c43.588,12.364 62.088,40.864 55.5,85.5c9.756,-10.032 18.923,-20.532 27.5,-31.5c2.514,-1.252 5.18,-1.752 8,-1.5c3.29,2.139 4.457,5.139 3.5,9c-2.105,6.427 -5.439,12.094 -10,17c-23.687,26.028 -49.52,49.528 -77.5,70.5c-25.15,14.426 -51.816,18.259 -80,11.5c-2.05,-0.461 -4.05,-1.128 -6,-2c-1.34,1.367 -2.673,2.7 -4,4c-7.11,10.551 -12.944,21.885 -17.5,34c-21.312,51.054 -31.479,104.054 -30.5,159c-0.111,0.617 -0.444,1.117 -1,1.5c-3.388,0.659 -6.721,0.492 -10,-0.5c-2.196,-1.354 -3.696,-3.354 -4.5,-6c-0.499,-5.657 -0.666,-11.324 -0.5,-17c-21.465,3.869 -41.799,0.703 -61,-9.5c-26.75,-18.082 -49.583,-40.249 -68.5,-66.5c-6.248,-8.828 -12.248,-17.828 -18,-27c-16.007,-13.668 -26.673,-30.668 -32,-51c-5.422,-22.736 0.912,-41.403 19,-56c-7.018,-32.746 -14.685,-65.412 -23,-98c-2.982,-14.876 2.518,-25.043 16.5,-30.5c28.705,-4.338 57.372,-8.838 86,-13.5c9.876,0.524 17.709,4.857 23.5,13c4.672,20.378 9.505,39.378 14.5,57c2.569,9.827 4.903,19.827 7,30c-0.639,0.597 -0.972,1.43 -1,2.5c6.654,29.102 12.987,58.269 19,87.5c-0.455,4.954 -1.788,9.62 -4,14c-0.359,1.871 -1.359,3.371 -3,4.5c-2.839,1.92 -5.839,3.587 -9,5c-10.081,1.849 -20.081,4.016 -30,6.5c8.973,9.151 19.306,16.318 31,21.5c4.667,0.667 9.333,0.667 14,-0c14.646,-9.636 27.813,-21.136 39.5,-34.5c10.5,-12.5 21,-25 31.5,-37.5c-6.899,-5.065 -12.566,-11.231 -17,-18.5c-16.294,-2.365 -30.461,-9.031 -42.5,-20c-1.75,-2.234 -3.25,-4.568 -4.5,-7c-12.222,-21.316 -15.388,-43.983 -9.5,-68c2.058,-6.446 4.892,-12.446 8.5,-18c2.914,-4.585 6.58,-8.585 11,-12c1.733,-5.9 2.233,-11.9 1.5,-18c-9.912,-8.484 -16.246,-19.15 -19,-32c-3.197,-12.218 -4.03,-24.551 -2.5,-37c-33.039,-2.092 -58.206,-17.092 -75.5,-45c-4.682,-7.727 -6.682,-16.06 -6,-25c1.061,-3.062 2.894,-5.562 5.5,-7.5c25.737,-15.725 53.071,-19.391 82,-11c14.402,6.265 25.568,16.099 33.5,29.5c1.914,-2.798 2.914,-5.798 3,-9c-19.834,-18.335 -27.334,-40.668 -22.5,-67c-0.131,0.739 0.036,1.406 0.5,2c0.798,-3.393 1.798,-6.726 3,-10c3.505,-10.341 10.338,-17.008 20.5,-20Z" style="fill:#0d1c2a;"/><path d="M354.648,352.074c-5.657,3.849 -11.991,6.349 -19,7.5c-23.973,2.807 -47.973,3.14 -72,1c-6.062,-1.079 -12.062,-2.412 -18,-4c-2.674,-0.67 -5.007,-1.837 -7,-3.5c16.817,5.896 34.15,8.562 52,8c17.173,0.235 34.173,-1.265 51,-4.5c4.354,-1.514 8.688,-3.014 13,-4.5Z" style="fill:#09080a;"/><path d="M477.648,318.074c0.537,6.496 0.704,13.163 0.5,20c0.874,6.826 2.374,13.493 4.5,20c-2.891,-5.196 -4.724,-10.863 -5.5,-17c-0.5,-6.658 -0.666,-13.325 -0.5,-20c0.904,-0.709 1.237,-1.709 1,-3Z" style="fill:#0c0d11;"/><path d="M48.648,259.074c0.997,-0.03 1.664,0.47 2,1.5c8.531,31.931 16.865,63.931 25,96c-1.036,1.617 -2.203,1.784 -3.5,0.5c-7.665,-30.329 -15.331,-60.662 -23,-91c-0.497,-2.31 -0.663,-4.643 -0.5,-7Z" style="fill:#37414f;"/><path d="M215.648,281.074c-5.169,19.294 -3.503,37.96 5,56c-4.67,-6.491 -7.503,-13.824 -8.5,-22c-0.667,-8 -0.667,-16 0,-24c0.302,-3.745 1.469,-7.078 3.5,-10Z" style="fill:#0f0c0d;"/><path d="M137.648,241.074c3.35,-0.165 6.683,0.002 10,0.5c2.5,1.167 4.333,3 5.5,5.5c11.331,50.659 22.665,101.326 34,152c1.587,5.591 2.254,11.258 2,17c-1.26,2.928 -3.427,4.761 -6.5,5.5c-19.69,2.845 -39.357,5.511 -59,8c8.346,-13.628 10.179,-28.128 5.5,-43.5c-2.199,-10.903 -7.365,-20.07 -15.5,-27.5c-8.168,-4.058 -16.835,-5.558 -26,-4.5c-7.831,-29.991 -15.664,-59.991 -23.5,-90c-1.724,-5.231 -0.224,-9.065 4.5,-11.5c23.175,-3.64 46.175,-7.474 69,-11.5Z" style="fill:#4f4faa;"/><path d="M208.648,262.074c-3.608,5.554 -6.442,11.554 -8.5,18c-5.888,24.017 -2.722,46.684 9.5,68c-5.051,-6.101 -8.551,-13.101 -10.5,-21c-5.913,-20.673 -4.246,-40.673 5,-60c1.049,-2.118 2.549,-3.784 4.5,-5Z" style="fill:#101216;"/><path d="M265.648,252.074c23.333,1.333 46.667,1.333 70,-0l6,-0c18.194,1.223 34.861,7.056 50,17.5c10.045,8.923 15.711,20.089 17,33.5c-5.425,18.437 -16.758,32.104 -34,41c-2.677,-1.932 -5.677,-2.432 -9,-1.5c-3.859,3.032 -7.526,6.198 -11,9.5c-4.312,1.486 -8.646,2.986 -13,4.5c-16.827,3.235 -33.827,4.735 -51,4.5c-17.85,0.562 -35.183,-2.104 -52,-8c-7.251,-3.954 -13.251,-9.287 -18,-16c-8.503,-18.04 -10.169,-36.706 -5,-56c2.241,-4.093 4.741,-8.093 7.5,-12c4.066,-3.577 8.232,-6.911 12.5,-10c9.567,-4.114 19.567,-6.447 30,-7Z" style="fill:#f4d7b8;"/><path d="M128.262,295.423l0.636,3.099c1.232,0.189 2.439,0.513 3.601,0.965l2.1,-2.365c1.176,0.534 2.297,1.181 3.348,1.932l-0.999,3.002c0.973,0.78 1.857,1.663 2.636,2.636l3.002,-0.998c0.751,1.051 1.398,2.171 1.933,3.347l-2.366,2.101c0.453,1.161 0.776,2.368 0.965,3.6l3.099,0.637c0.125,1.285 0.125,2.58 -0,3.865l-3.099,0.637c-0.189,1.231 -0.512,2.439 -0.965,3.6l2.366,2.101c-0.535,1.175 -1.182,2.296 -1.933,3.347l-3.002,-0.998c-0.779,0.972 -1.663,1.856 -2.636,2.636l0.999,3.002c-1.051,0.751 -2.172,1.398 -3.348,1.932l-2.1,-2.365c-1.162,0.452 -2.369,0.776 -3.601,0.964l-0.636,3.099c-1.286,0.125 -2.58,0.125 -3.866,0l-0.636,-3.099c-1.232,-0.188 -2.439,-0.512 -3.601,-0.964l-2.1,2.365c-1.176,-0.534 -2.297,-1.181 -3.348,-1.932l0.999,-3.002c-0.973,-0.78 -1.857,-1.664 -2.636,-2.636l-3.002,0.998c-0.751,-1.051 -1.398,-2.172 -1.933,-3.347l2.366,-2.101c-0.453,-1.161 -0.776,-2.369 -0.965,-3.6l-3.099,-0.637c-0.125,-1.285 -0.125,-2.58 0,-3.865l3.099,-0.637c0.189,-1.232 0.512,-2.439 0.965,-3.6l-2.366,-2.101c0.535,-1.176 1.182,-2.296 1.933,-3.347l3.002,0.998c0.779,-0.973 1.663,-1.856 2.636,-2.636l-0.999,-3.002c1.051,-0.751 2.172,-1.398 3.348,-1.932l2.1,2.365c1.162,-0.452 2.369,-0.776 3.601,-0.965l0.636,-3.099c1.286,-0.124 2.58,-0.124 3.866,0Zm-1.933,15.892c2.206,0 3.996,1.791 3.996,3.996c0,2.206 -1.79,3.997 -3.996,3.997c-2.206,-0 -3.996,-1.791 -3.996,-3.997c-0,-2.205 1.79,-3.996 3.996,-3.996Z" style="fill:#f4d7b8;"/><path d="M353.648,281.074c9.296,-1.874 14.296,1.792 15,11c-2.552,14.55 -11.219,22.55 -26,24c-6.734,0.98 -10.401,-1.854 -11,-8.5c3.166,-12.329 10.499,-21.162 22,-26.5Z" style="fill:#0e1b28;"/><path d="M243.648,281.074c13.391,2.565 20.724,10.731 22,24.5c0.299,3.735 -1.034,6.735 -4,9c-10.512,1.153 -18.679,-2.68 -24.5,-11.5c-6.125,-10.108 -3.959,-17.441 6.5,-22Z" style="fill:#0e1a28;"/><path d="M118.648,250.074c2.687,-0.164 5.354,0.003 8,0.5c2.667,2.333 2.667,4.667 0,7c-9.007,1.453 -18.007,2.953 -27,4.5c-5.171,-0.857 -6.171,-3.357 -3,-7.5c7.483,-1.467 14.816,-2.967 22,-4.5Z" style="fill:#0e1925;"/><path d="M335.648,252.074c-23.333,1.333 -46.667,1.333 -70,-0c23.314,-1.252 46.648,-1.252 70,-0Z" style="fill:#efe4cc;"/><path d="M341.648,252.074l-6,-0c-23.352,-1.252 -46.686,-1.252 -70,-0c-10.433,0.553 -20.433,2.886 -30,7c3.52,-2.589 7.52,-4.422 12,-5.5c5.622,-1.258 11.289,-2.258 17,-3c22.667,-0.667 45.333,-0.667 68,-0c3.195,0.181 6.195,0.681 9,1.5Z" style="fill:#0a0809;"/><path d="M342.648,189.074c1.688,17.212 9.021,31.379 22,42.5c16.315,8.243 33.648,11.743 52,10.5c10.685,11.007 23.685,15.84 39,14.5c3.57,-0.611 6.237,-2.444 8,-5.5c1.213,0.997 1.046,1.997 -0.5,3c-0.152,14.098 -3.652,27.265 -10.5,39.5c1.535,0.496 3.035,0.33 4.5,-0.5c1.225,0.362 2.391,0.862 3.5,1.5c-0.228,0.399 -0.562,0.565 -1,0.5c-2.82,-0.252 -5.486,0.248 -8,1.5c-8.577,10.968 -17.744,21.468 -27.5,31.5c6.588,-44.636 -11.912,-73.136 -55.5,-85.5c-27.727,-6.52 -55.727,-8.186 -84,-5c8.222,-2.363 15.056,-6.863 20.5,-13.5c10.44,-16.418 15.607,-34.418 15.5,-54c6.433,-1.536 12.766,-1.203 19,1c1.241,6.099 2.241,12.099 3,18Z" style="fill:#fbf7ed;"/><path d="M140.648,224.074c10.715,-1.048 18.881,2.952 24.5,12c5.327,19.133 9.827,38.467 13.5,58c-4.995,-17.622 -9.828,-36.622 -14.5,-57c-5.791,-8.143 -13.624,-12.476 -23.5,-13Z" style="fill:#101214;"/><path d="M365.648,71.074c-8.84,16.53 -12.84,34.197 -12,53c1.699,-0.16 3.366,0.006 5,0.5c-1.504,1.491 -2.337,3.324 -2.5,5.5c-0.333,-1.333 -0.667,-2.667 -1,-4c-0.848,5.856 -0.181,11.522 2,17c0.667,-0.667 1.333,-1.333 2,-2c1.113,1.26 1.28,2.427 0.5,3.5c1.325,-0.148 2.492,0.018 3.5,0.5c0.792,-2.087 1.959,-3.921 3.5,-5.5c-2.596,-1.797 -2.263,-3.131 1,-4c-1.154,-0.914 -0.987,-1.747 0.5,-2.5c1.82,1.402 3.654,2.735 5.5,4c0.14,1.403 0.14,2.903 0,4.5c0.808,0.308 1.475,0.808 2,1.5c-0.746,1.236 -1.079,2.57 -1,4c21.288,-3.831 42.622,-3.998 64,-0.5c3.64,0.636 6.306,2.469 8,5.5c-4.541,-2.892 -9.541,-4.726 -15,-5.5c-15,-0.667 -30,-0.667 -45,-0c-24.693,1.841 -34.526,15.008 -29.5,39.5c1.469,12.429 6.302,23.263 14.5,32.5c8.351,4.838 17.351,7.338 27,7.5c3.812,0.824 7.812,1.324 12,1.5c-13.235,1.096 -25.901,-1.071 -38,-6.5c-0.667,0.333 -1.333,0.667 -2,1c1.214,1.569 2.881,2.402 5,2.5c-1.149,1.604 -1.149,3.27 0,5c-0.987,2.994 -2.32,3.161 -4,0.5c-1.503,1.09 -1.836,2.257 -1,3.5c15.054,5.113 30.387,7.946 46,8.5c-18.352,1.243 -35.685,-2.257 -52,-10.5c-12.979,-11.121 -20.312,-25.288 -22,-42.5c1.365,1.065 2.198,3.065 2.5,6c0.333,-1.333 0.667,-2.667 1,-4c0.324,2.069 1.158,2.402 2.5,1c2.576,1.383 2.242,2.217 -1,2.5c1.37,1.441 2.37,3.108 3,5c2.976,0.757 4.809,-0.409 5.5,-3.5c-0.402,2.374 -0.236,4.707 0.5,7c-1.429,1.831 -1.929,3.831 -1.5,6c2.784,-2.582 4.284,-2.249 4.5,1c1.135,-0.603 2.135,-0.936 3,-1c-8.597,-17.541 -9.597,-35.374 -3,-53.5c-0.296,-1.888 -0.796,-3.722 -1.5,-5.5c-1.011,0.837 -2.178,1.17 -3.5,1c0.149,-1.052 -0.017,-2.052 -0.5,-3c-0.76,1.997 -1.26,3.663 -1.5,5c-0.787,-0.742 -1.453,-1.575 -2,-2.5c0.951,-0.718 1.117,-1.551 0.5,-2.5c-0.949,1.593 -2.115,2.926 -3.5,4c2.141,-3.969 4.474,-7.802 7,-11.5c-3.805,-19.942 -2.305,-39.442 4.5,-58.5c1.689,-4.06 3.856,-7.727 6.5,-11Z" style="fill:#0e1924;"/><path d="M248.648,150.074c13.371,-0.332 26.704,0.168 40,1.5c12.243,1.412 17.576,8.245 16,20.5c0.061,15.426 -3.772,29.759 -11.5,43c-5.919,6.757 -13.419,10.257 -22.5,10.5c-9.333,0.667 -18.667,0.667 -28,-0c-1.718,-0.346 -3.385,-0.846 -5,-1.5c-0.333,-3 -0.667,-6 -1,-9c0.842,-18.347 1.842,-36.68 3,-55c-5.607,-0.395 -10.441,1.272 -14.5,5c-1.793,14.263 -3.126,28.596 -4,43c-6.019,-15.196 -8.019,-30.863 -6,-47c0.93,-2.052 2.43,-3.552 4.5,-4.5c9.73,-2.509 19.397,-4.676 29,-6.5Z" style="fill:#fbf7ed;"/><path d="M271.648,173.074c12.817,-0.015 19.151,6.485 19,19.5c-1.554,16.946 -9.888,21.946 -25,15c-7.168,-9.506 -7.668,-19.339 -1.5,-29.5c2.17,-2.323 4.67,-3.99 7.5,-5Z" style="fill:#0e1a27;"/><path d="M446.648,152.074c0.011,1.517 0.677,2.684 2,3.5c-1.833,0.167 -3.667,0.333 -5.5,0.5c-11.683,-2.46 -23.517,-3.794 -35.5,-4c-11.32,-0.044 -22.32,1.79 -33,5.5c-4.708,1.378 -8.208,4.212 -10.5,8.5c-0.216,6.821 0.784,13.488 3,20c4.926,12 12.426,22.167 22.5,30.5c7.931,4.971 16.598,6.805 26,5.5c2.597,0.221 2.597,0.721 0,1.5c0.916,0.278 1.582,0.778 2,1.5c-6.244,0.958 -12.577,1.291 -19,1c-9.649,-0.162 -18.649,-2.662 -27,-7.5c-8.198,-9.237 -13.031,-20.071 -14.5,-32.5c-5.026,-24.492 4.807,-37.659 29.5,-39.5c15,-0.667 30,-0.667 45,-0c5.459,0.774 10.459,2.608 15,5.5Z" style="fill:#f7f4ed;"/><path d="M417.648,225.074c-0.418,-0.722 -1.084,-1.222 -2,-1.5c2.597,-0.779 2.597,-1.279 0,-1.5c6.901,-0.702 12.735,-3.702 17.5,-9c6.521,-13.046 9.355,-26.879 8.5,-41.5c0.187,-4.655 -0.479,-9.155 -2,-13.5c3.268,-0.987 6.602,-1.32 10,-1c1.838,16.297 0.338,32.297 -4.5,48c-5.159,12.164 -14.326,18.831 -27.5,20Z" style="fill:#444e5b;"/><path d="M399.648,174.074c9.494,-1.016 14.661,3.317 15.5,13c0.818,2.727 0.652,5.394 -0.5,8c-2.472,-4.977 -6.306,-8.31 -11.5,-10c-2.321,0.409 -4.487,1.243 -6.5,2.5c-2.618,2.739 -5.118,5.573 -7.5,8.5c-0.513,-9.305 2.987,-16.639 10.5,-22Z" style="fill:#f8f4ec;"/><path d="M365.648,71.074c-2.644,3.273 -4.811,6.94 -6.5,11c-6.805,19.058 -8.305,38.558 -4.5,58.5c-2.526,3.698 -4.859,7.531 -7,11.5c-1.159,0.956 -2.326,1.956 -3.5,3c-8.869,-2.567 -17.702,-2.567 -26.5,-0c-8.505,-12.754 -20.505,-18.92 -36,-18.5c-11.909,-0.821 -23.743,-0.654 -35.5,0.5c1.147,-11.118 4.147,-21.785 9,-32c7.474,-18.133 19.307,-32.633 35.5,-43.5c28.332,-14.083 57.999,-17.917 89,-11.5c-5.503,6.492 -10.17,13.492 -14,21Z" style="fill:#fcf7ed;"/><path d="M159.648,90.074c12.116,-0.573 24.116,0.26 36,2.5c20.586,6.89 30.42,21.056 29.5,42.5c-24.39,-19.868 -52.223,-32.535 -83.5,-38c5.919,-2.747 11.919,-5.08 18,-7Z" style="fill:#353f4d;"/><path d="M468.648,18.074c1.25,0.077 2.083,0.744 2.5,2c5.882,17.154 4.216,33.488 -5,49c-3.686,4.02 -7.686,7.686 -12,11c-6.488,-6.488 -12.988,-12.988 -19.5,-19.5c14.662,-8.329 25.495,-20.162 32.5,-35.5c0.977,-2.24 1.477,-4.573 1.5,-7Z" style="fill:#36404e;"/><path d="M239.648,17.074c5.282,16.973 15.282,30.639 30,41c-7.112,6.444 -13.112,13.777 -18,22c-18.044,-18.142 -22.044,-39.142 -12,-63Z" style="fill:#36404e;"/><path d="M340.648,372.074c-6.083,1.794 -12.416,2.961 -19,3.5c-14.643,1.188 -29.31,1.688 -44,1.5c20.933,-0.629 41.933,-2.295 63,-5Z" style="fill:#0c090e;"/><path d="M185.648,324.074c6.319,28.28 12.486,56.614 18.5,85c0.667,3.333 0.667,6.667 0,10c-0.472,3.61 -1.972,6.61 -4.5,9c2.212,-4.38 3.545,-9.046 4,-14c-6.013,-29.231 -12.346,-58.398 -19,-87.5c0.028,-1.07 0.361,-1.903 1,-2.5Z" style="fill:#111214;"/><path d="M408.648,303.074c2.507,18.956 -2.326,35.956 -14.5,51c-13.179,16.017 -29.679,27.017 -49.5,33c-8.432,1.514 -16.932,2.514 -25.5,3c-7.583,-0.417 -15.083,-1.417 -22.5,-3c-6.744,-2.539 -13.078,-5.872 -19,-10c14.69,0.188 29.357,-0.312 44,-1.5c6.584,-0.539 12.917,-1.706 19,-3.5c12.371,-2.269 23.204,-7.602 32.5,-16c3.066,-3.909 3.566,-7.909 1.5,-12c17.242,-8.896 28.575,-22.563 34,-41Z" style="fill:#cead8d;"/><path d="M92.648,369.074c5.791,-1.011 10.624,0.656 14.5,5c0.841,3.62 0.174,6.954 -2,10c-13.726,15.394 -28.393,29.727 -44,43c-10.181,-26.137 -2.348,-44.637 23.5,-55.5c2.81,-0.782 5.477,-1.616 8,-2.5Z" style="fill:#36404e;"/><path d="M477.648,318.074c0.237,1.291 -0.096,2.291 -1,3c-0.848,6.918 -1.348,14.585 -1.5,23c-20.273,23.942 -42.773,45.442 -67.5,64.5c-14.921,11.314 -31.587,18.981 -50,23c-27.76,4.298 -51.76,-3.036 -72,-22c0.612,-2.058 1.612,-3.891 3,-5.5c2.416,-0.126 4.75,-0.459 7,-1c28.184,6.759 54.85,2.926 80,-11.5c27.98,-20.972 53.813,-44.472 77.5,-70.5c4.561,-4.906 7.895,-10.573 10,-17c0.957,-3.861 -0.21,-6.861 -3.5,-9c0.438,0.065 0.772,-0.101 1,-0.5c-1.109,-0.638 -2.275,-1.138 -3.5,-1.5c-1.465,0.83 -2.965,0.996 -4.5,0.5c6.848,-12.235 10.348,-25.402 10.5,-39.5c1.546,-1.003 1.713,-2.003 0.5,-3c6.94,-13.757 10.774,-28.424 11.5,-44c4.974,21.367 10.141,42.701 15.5,64c-5.427,15.376 -9.76,31.042 -13,47Z" style="fill:#e2d9c8;"/><path d="M296.648,387.074c7.417,1.583 14.917,2.583 22.5,3c8.568,-0.486 17.068,-1.486 25.5,-3c-7.582,3.042 -15.582,4.375 -24,4c-8.405,0.315 -16.405,-1.018 -24,-4Z" style="fill:#0a090e;"/><path d="M114.648,399.074c2.008,10.951 -0.826,20.618 -8.5,29c-3.287,-4.471 -4.287,-9.471 -3,-15c4.825,-3.978 8.658,-8.645 11.5,-14Z" style="fill:#353f4d;"/><path d="M556.648,386.074c12.247,31.076 21.247,63.076 27,96c-6.852,-31.036 -16.185,-62.702 -28,-95c0.124,-0.607 0.457,-0.94 1,-1Z" style="fill:#101113;"/><path d="M151.648,462.074c10.311,9.66 22.311,16.493 36,20.5c3.725,0.76 7.392,0.593 11,-0.5c1.635,20.297 11.968,27.297 31,21c-2.869,3.258 -6.536,4.591 -11,4c-2.356,14.715 -7.523,28.382 -15.5,41c-2.537,2.872 -5.37,5.372 -8.5,7.5c7.195,0.262 14.195,0.429 21,0.5c-17.449,3.538 -33.782,0.705 -49,-8.5c-21.5,-15 -39.834,-33.167 -55,-54.5c7.061,-3.034 13.728,-6.868 20,-11.5c7.198,-6.032 13.864,-12.532 20,-19.5Z" style="fill:#fcf7ed;"/><path d="M151.648,462.074c-6.136,6.968 -12.802,13.468 -20,19.5c-6.272,4.632 -12.939,8.466 -20,11.5c-7.666,-10.351 -14.999,-21.017 -22,-32c15.504,-3.935 31.004,-7.935 46.5,-12c0.833,0.167 1.667,0.333 2.5,0.5c4.229,4.398 8.562,8.564 13,12.5Z" style="fill:#e1d9c8;"/><path d="M476.648,321.074c-0.166,6.675 0,13.342 0.5,20c0.776,6.137 2.609,11.804 5.5,17c1.047,3.761 2.881,7.094 5.5,10c6.972,7.31 14.805,13.477 23.5,18.5c6.542,6.537 8.709,14.371 6.5,23.5c-4.287,12.24 -8.287,24.573 -12,37c-1.533,12.137 0.8,23.47 7,34c7.828,11.334 17.662,20.334 29.5,27c-2.843,-0.672 -5.343,-2.005 -7.5,-4c-0.418,31.108 -6.251,61.108 -17.5,90c-22.93,5.396 -46.097,9.73 -69.5,13c-3.759,0.407 -5.259,-1.26 -4.5,-5c0.85,-5.724 1.85,-11.391 3,-17c6.014,-37.157 7.514,-74.49 4.5,-112c-0.614,-4.275 -2.948,-6.942 -7,-8c-6.736,2.951 -13.236,6.284 -19.5,10c-18.818,6.657 -33.651,18.323 -44.5,35c-5.931,11.245 -6.931,22.912 -3,35c5.938,10.267 12.272,20.267 19,30c3.34,9.09 3.173,18.09 -0.5,27c-0.876,-0.131 -1.543,0.202 -2,1c-1.301,2.927 -2.301,5.927 -3,9c-50.983,2.905 -101.15,-1.095 -150.5,-12c-2.526,0.564 -5.026,1.231 -7.5,2c-3.037,-0.353 -5.037,-1.353 -6,-3c3.279,0.992 6.612,1.159 10,0.5c0.556,-0.383 0.889,-0.883 1,-1.5c0.801,-68.205 16.801,-132.538 48,-193c1.327,-1.3 2.66,-2.633 4,-4c1.95,0.872 3.95,1.539 6,2c-2.25,0.541 -4.584,0.874 -7,1c-1.388,1.609 -2.388,3.442 -3,5.5c20.24,18.964 44.24,26.298 72,22c18.413,-4.019 35.079,-11.686 50,-23c24.727,-19.058 47.227,-40.558 67.5,-64.5c0.152,-8.415 0.652,-16.082 1.5,-23Z" style="fill:#fcf7ec;"/><path d="M446.648,585.074c-0.652,-0.949 -0.986,-2.115 -1,-3.5c5.802,-35.323 7.302,-70.823 4.5,-106.5c-0.27,-4.22 -2.27,-7.22 -6,-9c-6.202,3.685 -12.702,6.685 -19.5,9c6.264,-3.716 12.764,-7.049 19.5,-10c4.052,1.058 6.386,3.725 7,8c3.014,37.51 1.514,74.843 -4.5,112Z" style="fill:#090a0d;"/><path d="M285.648,405.074c-31.199,60.462 -47.199,124.795 -48,193c-0.979,-54.946 9.188,-107.946 30.5,-159c4.556,-12.115 10.39,-23.449 17.5,-34Z" style="fill:#0a0c0f;"/><path d="M578.648,577.074c-2.541,1.149 -5.041,1.149 -7.5,-0c-0.5,-11.662 -0.667,-23.329 -0.5,-35l0,-8c1.002,12.616 1.335,26.616 1,42c2.559,-0.302 4.893,0.032 7,1Z" style="fill:#060608;"/><path d="M215.648,556.074c-6.805,-0.071 -13.805,-0.238 -21,-0.5c3.13,-2.128 5.963,-4.628 8.5,-7.5c7.977,-12.618 13.144,-26.285 15.5,-41c4.464,0.591 8.131,-0.742 11,-4c0.887,-2.235 1.887,-2.735 3,-1.5c-4.185,16.974 -7.351,34.14 -9.5,51.5c-2.308,1.491 -4.808,2.491 -7.5,3Z" style="fill:#e1d8c8;"/><path d="M542.648,508.074c8.108,3.592 16.441,6.592 25,9c1.453,5.7 2.453,11.366 3,17l0,8c-0.768,-0.763 -1.268,-1.763 -1.5,-3c-0.167,13.013 -0.667,26.013 -1.5,39c-16.479,5.952 -33.146,11.286 -50,16c11.249,-28.892 17.082,-58.892 17.5,-90c2.157,1.995 4.657,3.328 7.5,4Z" style="fill:#e1d8c7;"/><path d="M446.648,585.074c-1.15,5.609 -2.15,11.276 -3,17c-0.724,1.718 -1.391,3.552 -2,5.5c-16.641,1.754 -33.308,2.754 -50,3c1.746,-2.659 3.08,-5.492 4,-8.5c3.673,-8.91 3.84,-17.91 0.5,-27c-6.728,-9.733 -13.062,-19.733 -19,-30c-3.931,-12.088 -2.931,-23.755 3,-35c10.849,-16.677 25.682,-28.343 44.5,-35c6.798,-2.315 13.298,-5.315 19.5,-9c3.73,1.78 5.73,4.78 6,9c2.802,35.677 1.302,71.177 -4.5,106.5c0.014,1.385 0.348,2.551 1,3.5Z" style="fill:#0c1c2a;"/><g transform="matrix(174,0,0,174,765.838,801.935)"></g><text x="-2.549px" y="801.935px" style="font-family:'Computadora';font-size:174px;fill:url(#_Linear1);">IntelliCow</text><defs><linearGradient id="_Linear1" x1="0" y1="0" x2="1" y2="0" gradientUnits="userSpaceOnUse" gradientTransform="matrix(635.906,0,0,635.906,-2.54883,731.622)"><stop offset="0" style="stop-color:#4f4faa;stop-opacity:1"/><stop offset="1" style="stop-color:#cd9393;stop-opacity:1"/></linearGradient></defs></svg>